<mxfile host="app.diagrams.net" modified="2020-08-26T11:33:07.624Z" agent="5.0 (Windows NT 10.0; Win64; x64) AppleWebKit/537.36 (KHTML, like Gecko) Chrome/84.0.4147.135 Safari/537.36" etag="mBMOJKwV_rlLvabR26xC" version="13.6.5" type="github">
  <diagram id="C5RBs43oDa-KdzZeNtuy" name="Page-1">
    <mxGraphModel dx="2966" dy="1426" grid="1" gridSize="10" guides="1" tooltips="1" connect="1" arrows="1" fold="1" page="1" pageScale="1" pageWidth="827" pageHeight="1169" math="0" shadow="0" extFonts="Old Standard TT^https://fonts.googleapis.com/css?family=Old+Standard+TT">
      <root>
        <mxCell id="WIyWlLk6GJQsqaUBKTNV-0" />
        <mxCell id="WIyWlLk6GJQsqaUBKTNV-1" parent="WIyWlLk6GJQsqaUBKTNV-0" />
        <mxCell id="9OyCvRePDQKFfZRagJJl-12" value="Script" style="swimlane;fontStyle=1;align=center;verticalAlign=top;childLayout=stackLayout;horizontal=1;startSize=26;horizontalStack=0;resizeParent=1;resizeLast=0;collapsible=1;marginBottom=0;rounded=0;shadow=0;strokeWidth=1;fontFamily=Old Standard TT;fontSize=13;" vertex="1" parent="WIyWlLk6GJQsqaUBKTNV-1">
          <mxGeometry x="56" y="230" width="160" height="210" as="geometry">
            <mxRectangle x="340" y="380" width="170" height="26" as="alternateBounds" />
          </mxGeometry>
        </mxCell>
        <mxCell id="9OyCvRePDQKFfZRagJJl-103" value="+ id: Int" style="text;align=left;verticalAlign=top;spacingLeft=4;spacingRight=4;overflow=hidden;rotatable=0;points=[[0,0.5],[1,0.5]];portConstraint=eastwest;fontFamily=Old Standard TT;fontStyle=0;fontSize=13;" vertex="1" parent="9OyCvRePDQKFfZRagJJl-12">
          <mxGeometry y="26" width="160" height="26" as="geometry" />
        </mxCell>
        <mxCell id="9OyCvRePDQKFfZRagJJl-13" value="+ creationDate: Date" style="text;align=left;verticalAlign=top;spacingLeft=4;spacingRight=4;overflow=hidden;rotatable=0;points=[[0,0.5],[1,0.5]];portConstraint=eastwest;fontFamily=Old Standard TT;fontStyle=0;fontSize=13;" vertex="1" parent="9OyCvRePDQKFfZRagJJl-12">
          <mxGeometry y="52" width="160" height="26" as="geometry" />
        </mxCell>
        <mxCell id="9OyCvRePDQKFfZRagJJl-21" value="+ ScriptName: String" style="text;align=left;verticalAlign=top;spacingLeft=4;spacingRight=4;overflow=hidden;rotatable=0;points=[[0,0.5],[1,0.5]];portConstraint=eastwest;fontSize=13;fontFamily=Old Standard TT;" vertex="1" parent="9OyCvRePDQKFfZRagJJl-12">
          <mxGeometry y="78" width="160" height="26" as="geometry" />
        </mxCell>
        <mxCell id="9OyCvRePDQKFfZRagJJl-23" value="+ ScriptType: String" style="text;align=left;verticalAlign=top;spacingLeft=4;spacingRight=4;overflow=hidden;rotatable=0;points=[[0,0.5],[1,0.5]];portConstraint=eastwest;fontFamily=Old Standard TT;fontSize=13;" vertex="1" parent="9OyCvRePDQKFfZRagJJl-12">
          <mxGeometry y="104" width="160" height="26" as="geometry" />
        </mxCell>
        <mxCell id="9OyCvRePDQKFfZRagJJl-25" value="+ Status: String" style="text;align=left;verticalAlign=top;spacingLeft=4;spacingRight=4;overflow=hidden;rotatable=0;points=[[0,0.5],[1,0.5]];portConstraint=eastwest;fontFamily=Old Standard TT;fontSize=13;" vertex="1" parent="9OyCvRePDQKFfZRagJJl-12">
          <mxGeometry y="130" width="160" height="26" as="geometry" />
        </mxCell>
        <mxCell id="9OyCvRePDQKFfZRagJJl-27" value="+ Report: Text" style="text;align=left;verticalAlign=top;spacingLeft=4;spacingRight=4;overflow=hidden;rotatable=0;points=[[0,0.5],[1,0.5]];portConstraint=eastwest;fontFamily=Old Standard TT;fontSize=13;" vertex="1" parent="9OyCvRePDQKFfZRagJJl-12">
          <mxGeometry y="156" width="160" height="23" as="geometry" />
        </mxCell>
        <mxCell id="9OyCvRePDQKFfZRagJJl-29" value="" style="line;html=1;strokeWidth=1;align=left;verticalAlign=middle;spacingTop=-1;spacingLeft=3;spacingRight=3;rotatable=0;labelPosition=right;points=[];portConstraint=eastwest;" vertex="1" parent="9OyCvRePDQKFfZRagJJl-12">
          <mxGeometry y="179" width="160" height="8" as="geometry" />
        </mxCell>
        <mxCell id="9OyCvRePDQKFfZRagJJl-39" value="Workorder" style="swimlane;fontStyle=1;align=center;verticalAlign=top;childLayout=stackLayout;horizontal=1;startSize=26;horizontalStack=0;resizeParent=1;resizeLast=0;collapsible=1;marginBottom=0;rounded=0;shadow=0;strokeWidth=1;fontSize=13;fontFamily=Old Standard TT;" vertex="1" parent="WIyWlLk6GJQsqaUBKTNV-1">
          <mxGeometry x="651" y="238" width="160" height="185" as="geometry">
            <mxRectangle x="340" y="380" width="170" height="26" as="alternateBounds" />
          </mxGeometry>
        </mxCell>
        <mxCell id="9OyCvRePDQKFfZRagJJl-105" value="+ id: Int" style="text;align=left;verticalAlign=top;spacingLeft=4;spacingRight=4;overflow=hidden;rotatable=0;points=[[0,0.5],[1,0.5]];portConstraint=eastwest;fontFamily=Old Standard TT;fontStyle=0;fontSize=13;" vertex="1" parent="9OyCvRePDQKFfZRagJJl-39">
          <mxGeometry y="26" width="160" height="26" as="geometry" />
        </mxCell>
        <mxCell id="9OyCvRePDQKFfZRagJJl-40" value="+ name: String" style="text;align=left;verticalAlign=top;spacingLeft=4;spacingRight=4;overflow=hidden;rotatable=0;points=[[0,0.5],[1,0.5]];portConstraint=eastwest;fontFamily=Old Standard TT;fontSize=13;" vertex="1" parent="9OyCvRePDQKFfZRagJJl-39">
          <mxGeometry y="52" width="160" height="26" as="geometry" />
        </mxCell>
        <mxCell id="9OyCvRePDQKFfZRagJJl-41" value="+ creationDate: Date" style="text;align=left;verticalAlign=top;spacingLeft=4;spacingRight=4;overflow=hidden;rotatable=0;points=[[0,0.5],[1,0.5]];portConstraint=eastwest;fontFamily=Old Standard TT;fontSize=13;" vertex="1" parent="9OyCvRePDQKFfZRagJJl-39">
          <mxGeometry y="78" width="160" height="26" as="geometry" />
        </mxCell>
        <mxCell id="9OyCvRePDQKFfZRagJJl-42" value="+ vendor: String" style="text;align=left;verticalAlign=top;spacingLeft=4;spacingRight=4;overflow=hidden;rotatable=0;points=[[0,0.5],[1,0.5]];portConstraint=eastwest;fontFamily=Old Standard TT;fontSize=13;" vertex="1" parent="9OyCvRePDQKFfZRagJJl-39">
          <mxGeometry y="104" width="160" height="26" as="geometry" />
        </mxCell>
        <mxCell id="9OyCvRePDQKFfZRagJJl-43" value="+ templateType: String" style="text;align=left;verticalAlign=top;spacingLeft=4;spacingRight=4;overflow=hidden;rotatable=0;points=[[0,0.5],[1,0.5]];portConstraint=eastwest;fontFamily=Old Standard TT;fontSize=13;" vertex="1" parent="9OyCvRePDQKFfZRagJJl-39">
          <mxGeometry y="130" width="160" height="26" as="geometry" />
        </mxCell>
        <mxCell id="9OyCvRePDQKFfZRagJJl-45" value="" style="line;html=1;strokeWidth=1;align=left;verticalAlign=middle;spacingTop=-1;spacingLeft=3;spacingRight=3;rotatable=0;labelPosition=right;points=[];portConstraint=eastwest;" vertex="1" parent="9OyCvRePDQKFfZRagJJl-39">
          <mxGeometry y="156" width="160" height="8" as="geometry" />
        </mxCell>
        <mxCell id="9OyCvRePDQKFfZRagJJl-120" value="" style="endArrow=none;html=1;edgeStyle=orthogonalEdgeStyle;fontFamily=Old Standard TT;fontSize=11;" edge="1" parent="WIyWlLk6GJQsqaUBKTNV-1" source="9OyCvRePDQKFfZRagJJl-12" target="9OyCvRePDQKFfZRagJJl-32">
          <mxGeometry relative="1" as="geometry">
            <mxPoint x="221" y="334.75999999999993" as="sourcePoint" />
            <mxPoint x="381" y="334.75999999999993" as="targetPoint" />
          </mxGeometry>
        </mxCell>
        <mxCell id="9OyCvRePDQKFfZRagJJl-121" value="&lt;font face=&quot;Old Standard TT&quot;&gt;0..*&lt;/font&gt;" style="edgeLabel;resizable=0;html=1;align=left;verticalAlign=bottom;labelBackgroundColor=none;" connectable="0" vertex="1" parent="9OyCvRePDQKFfZRagJJl-120">
          <mxGeometry x="-1" relative="1" as="geometry">
            <mxPoint x="1" as="offset" />
          </mxGeometry>
        </mxCell>
        <mxCell id="9OyCvRePDQKFfZRagJJl-122" value="&lt;font face=&quot;Old Standard TT&quot;&gt;0..*&lt;/font&gt;" style="edgeLabel;resizable=0;html=1;align=right;verticalAlign=bottom;labelBackgroundColor=none;" connectable="0" vertex="1" parent="9OyCvRePDQKFfZRagJJl-120">
          <mxGeometry x="1" relative="1" as="geometry">
            <mxPoint x="-2" as="offset" />
          </mxGeometry>
        </mxCell>
        <mxCell id="9OyCvRePDQKFfZRagJJl-138" value="" style="endArrow=none;html=1;edgeStyle=orthogonalEdgeStyle;fontFamily=Old Standard TT;fontSize=11;" edge="1" parent="WIyWlLk6GJQsqaUBKTNV-1" source="9OyCvRePDQKFfZRagJJl-39" target="9OyCvRePDQKFfZRagJJl-90">
          <mxGeometry relative="1" as="geometry">
            <mxPoint x="710" y="470" as="sourcePoint" />
            <mxPoint x="870" y="470" as="targetPoint" />
          </mxGeometry>
        </mxCell>
        <mxCell id="9OyCvRePDQKFfZRagJJl-139" value="&lt;font face=&quot;Old Standard TT&quot;&gt;1..*&lt;/font&gt;" style="edgeLabel;resizable=0;html=1;align=left;verticalAlign=bottom;labelBackgroundColor=none;" connectable="0" vertex="1" parent="9OyCvRePDQKFfZRagJJl-138">
          <mxGeometry x="-1" relative="1" as="geometry">
            <mxPoint x="-21" y="18" as="offset" />
          </mxGeometry>
        </mxCell>
        <mxCell id="9OyCvRePDQKFfZRagJJl-140" value="&lt;font face=&quot;Old Standard TT&quot;&gt;1&lt;/font&gt;" style="edgeLabel;resizable=0;html=1;align=right;verticalAlign=bottom;labelBackgroundColor=none;" connectable="0" vertex="1" parent="9OyCvRePDQKFfZRagJJl-138">
          <mxGeometry x="1" relative="1" as="geometry">
            <mxPoint x="-2" as="offset" />
          </mxGeometry>
        </mxCell>
        <mxCell id="9OyCvRePDQKFfZRagJJl-141" value="" style="endArrow=none;html=1;edgeStyle=orthogonalEdgeStyle;fontFamily=Old Standard TT;fontSize=11;" edge="1" parent="WIyWlLk6GJQsqaUBKTNV-1" source="9OyCvRePDQKFfZRagJJl-53" target="9OyCvRePDQKFfZRagJJl-90">
          <mxGeometry relative="1" as="geometry">
            <mxPoint x="490" y="610" as="sourcePoint" />
            <mxPoint x="650" y="610" as="targetPoint" />
          </mxGeometry>
        </mxCell>
        <mxCell id="9OyCvRePDQKFfZRagJJl-142" value="&lt;font face=&quot;Old Standard TT&quot;&gt;1..*&lt;/font&gt;" style="edgeLabel;resizable=0;html=1;align=left;verticalAlign=bottom;labelBackgroundColor=none;" connectable="0" vertex="1" parent="9OyCvRePDQKFfZRagJJl-141">
          <mxGeometry x="-1" relative="1" as="geometry" />
        </mxCell>
        <mxCell id="9OyCvRePDQKFfZRagJJl-143" value="&lt;font face=&quot;Old Standard TT&quot;&gt;1&lt;/font&gt;" style="edgeLabel;resizable=0;html=1;align=right;verticalAlign=bottom;labelBackgroundColor=none;" connectable="0" vertex="1" parent="9OyCvRePDQKFfZRagJJl-141">
          <mxGeometry x="1" relative="1" as="geometry">
            <mxPoint x="-2" as="offset" />
          </mxGeometry>
        </mxCell>
        <mxCell id="9OyCvRePDQKFfZRagJJl-148" value="" style="endArrow=none;html=1;fontFamily=Old Standard TT;fontSize=11;" edge="1" parent="WIyWlLk6GJQsqaUBKTNV-1" source="9OyCvRePDQKFfZRagJJl-144">
          <mxGeometry width="50" height="50" relative="1" as="geometry">
            <mxPoint x="581" y="730" as="sourcePoint" />
            <mxPoint x="581" y="628" as="targetPoint" />
          </mxGeometry>
        </mxCell>
        <mxCell id="9OyCvRePDQKFfZRagJJl-149" value="" style="endArrow=none;html=1;edgeStyle=orthogonalEdgeStyle;fontFamily=Old Standard TT;fontSize=13;" edge="1" parent="WIyWlLk6GJQsqaUBKTNV-1" source="9OyCvRePDQKFfZRagJJl-72" target="9OyCvRePDQKFfZRagJJl-79">
          <mxGeometry relative="1" as="geometry">
            <mxPoint x="440" y="899.76" as="sourcePoint" />
            <mxPoint x="600" y="899.76" as="targetPoint" />
          </mxGeometry>
        </mxCell>
        <mxCell id="9OyCvRePDQKFfZRagJJl-150" value="&lt;font face=&quot;Old Standard TT&quot;&gt;0..*&lt;/font&gt;" style="edgeLabel;resizable=0;html=1;align=left;verticalAlign=bottom;labelBackgroundColor=none;" connectable="0" vertex="1" parent="9OyCvRePDQKFfZRagJJl-149">
          <mxGeometry x="-1" relative="1" as="geometry" />
        </mxCell>
        <mxCell id="9OyCvRePDQKFfZRagJJl-151" value="&lt;font face=&quot;Old Standard TT&quot;&gt;1&lt;/font&gt;" style="edgeLabel;resizable=0;html=1;align=right;verticalAlign=bottom;labelBackgroundColor=none;" connectable="0" vertex="1" parent="9OyCvRePDQKFfZRagJJl-149">
          <mxGeometry x="1" relative="1" as="geometry">
            <mxPoint x="-2" as="offset" />
          </mxGeometry>
        </mxCell>
        <mxCell id="9OyCvRePDQKFfZRagJJl-32" value="Device" style="swimlane;fontStyle=1;align=center;verticalAlign=top;childLayout=stackLayout;horizontal=1;startSize=26;horizontalStack=0;resizeParent=1;resizeLast=0;collapsible=1;marginBottom=0;rounded=0;shadow=0;strokeWidth=1;fontFamily=Old Standard TT;fontSize=13;" vertex="1" parent="WIyWlLk6GJQsqaUBKTNV-1">
          <mxGeometry x="420" y="230" width="160" height="208" as="geometry">
            <mxRectangle x="340" y="380" width="170" height="26" as="alternateBounds" />
          </mxGeometry>
        </mxCell>
        <mxCell id="9OyCvRePDQKFfZRagJJl-104" value="+ id: Int" style="text;align=left;verticalAlign=top;spacingLeft=4;spacingRight=4;overflow=hidden;rotatable=0;points=[[0,0.5],[1,0.5]];portConstraint=eastwest;fontFamily=Old Standard TT;fontStyle=0;fontSize=13;" vertex="1" parent="9OyCvRePDQKFfZRagJJl-32">
          <mxGeometry y="26" width="160" height="26" as="geometry" />
        </mxCell>
        <mxCell id="9OyCvRePDQKFfZRagJJl-33" value="+ hostname: String" style="text;align=left;verticalAlign=top;spacingLeft=4;spacingRight=4;overflow=hidden;rotatable=0;points=[[0,0.5],[1,0.5]];portConstraint=eastwest;fontFamily=Old Standard TT;fontSize=13;" vertex="1" parent="9OyCvRePDQKFfZRagJJl-32">
          <mxGeometry y="52" width="160" height="26" as="geometry" />
        </mxCell>
        <mxCell id="9OyCvRePDQKFfZRagJJl-34" value="+ ipAddress: String" style="text;align=left;verticalAlign=top;spacingLeft=4;spacingRight=4;overflow=hidden;rotatable=0;points=[[0,0.5],[1,0.5]];portConstraint=eastwest;fontFamily=Old Standard TT;fontSize=13;" vertex="1" parent="9OyCvRePDQKFfZRagJJl-32">
          <mxGeometry y="78" width="160" height="26" as="geometry" />
        </mxCell>
        <mxCell id="9OyCvRePDQKFfZRagJJl-35" value="+ rd: int(3)" style="text;align=left;verticalAlign=top;spacingLeft=4;spacingRight=4;overflow=hidden;rotatable=0;points=[[0,0.5],[1,0.5]];portConstraint=eastwest;fontFamily=Old Standard TT;fontSize=13;" vertex="1" parent="9OyCvRePDQKFfZRagJJl-32">
          <mxGeometry y="104" width="160" height="26" as="geometry" />
        </mxCell>
        <mxCell id="9OyCvRePDQKFfZRagJJl-36" value="+ deviceType: String" style="text;align=left;verticalAlign=top;spacingLeft=4;spacingRight=4;overflow=hidden;rotatable=0;points=[[0,0.5],[1,0.5]];portConstraint=eastwest;fontFamily=Old Standard TT;fontSize=13;" vertex="1" parent="9OyCvRePDQKFfZRagJJl-32">
          <mxGeometry y="130" width="160" height="26" as="geometry" />
        </mxCell>
        <mxCell id="9OyCvRePDQKFfZRagJJl-37" value="+ vendor: String" style="text;align=left;verticalAlign=top;spacingLeft=4;spacingRight=4;overflow=hidden;rotatable=0;points=[[0,0.5],[1,0.5]];portConstraint=eastwest;fontFamily=Old Standard TT;fontSize=13;" vertex="1" parent="9OyCvRePDQKFfZRagJJl-32">
          <mxGeometry y="156" width="160" height="23" as="geometry" />
        </mxCell>
        <mxCell id="9OyCvRePDQKFfZRagJJl-38" value="" style="line;html=1;strokeWidth=1;align=left;verticalAlign=middle;spacingTop=-1;spacingLeft=3;spacingRight=3;rotatable=0;labelPosition=right;points=[];portConstraint=eastwest;" vertex="1" parent="9OyCvRePDQKFfZRagJJl-32">
          <mxGeometry y="179" width="160" height="8" as="geometry" />
        </mxCell>
        <mxCell id="9OyCvRePDQKFfZRagJJl-152" value="" style="endArrow=none;html=1;fontFamily=Old Standard TT;fontSize=11;" edge="1" parent="WIyWlLk6GJQsqaUBKTNV-1" source="9OyCvRePDQKFfZRagJJl-153">
          <mxGeometry width="50" height="50" relative="1" as="geometry">
            <mxPoint x="320" y="427" as="sourcePoint" />
            <mxPoint x="320" y="335" as="targetPoint" />
          </mxGeometry>
        </mxCell>
        <mxCell id="9OyCvRePDQKFfZRagJJl-153" value="script_device" style="swimlane;fontStyle=1;childLayout=stackLayout;horizontal=1;startSize=26;fillColor=none;horizontalStack=0;resizeParent=1;resizeParentMax=0;resizeLast=0;collapsible=1;marginBottom=0;labelBackgroundColor=none;fontFamily=Old Standard TT;fontSize=12;" vertex="1" parent="WIyWlLk6GJQsqaUBKTNV-1">
          <mxGeometry x="250" y="432" width="140" height="78" as="geometry" />
        </mxCell>
        <mxCell id="9OyCvRePDQKFfZRagJJl-154" value="+ scriptId: Int" style="text;strokeColor=none;fillColor=none;align=left;verticalAlign=top;spacingLeft=4;spacingRight=4;overflow=hidden;rotatable=0;points=[[0,0.5],[1,0.5]];portConstraint=eastwest;fontFamily=Old Standard TT;fontSize=13;" vertex="1" parent="9OyCvRePDQKFfZRagJJl-153">
          <mxGeometry y="26" width="140" height="26" as="geometry" />
        </mxCell>
        <mxCell id="9OyCvRePDQKFfZRagJJl-155" value="+ deviceId: Int" style="text;strokeColor=none;fillColor=none;align=left;verticalAlign=top;spacingLeft=4;spacingRight=4;overflow=hidden;rotatable=0;points=[[0,0.5],[1,0.5]];portConstraint=eastwest;fontFamily=Old Standard TT;fontSize=13;" vertex="1" parent="9OyCvRePDQKFfZRagJJl-153">
          <mxGeometry y="52" width="140" height="26" as="geometry" />
        </mxCell>
        <mxCell id="9OyCvRePDQKFfZRagJJl-46" value="Cronjob" style="swimlane;fontStyle=1;align=center;verticalAlign=top;childLayout=stackLayout;horizontal=1;startSize=26;horizontalStack=0;resizeParent=1;resizeLast=0;collapsible=1;marginBottom=0;rounded=0;shadow=0;strokeWidth=1;fontFamily=Old Standard TT;fontSize=13;" vertex="1" parent="WIyWlLk6GJQsqaUBKTNV-1">
          <mxGeometry x="40" y="528" width="176" height="352" as="geometry">
            <mxRectangle x="340" y="380" width="170" height="26" as="alternateBounds" />
          </mxGeometry>
        </mxCell>
        <mxCell id="9OyCvRePDQKFfZRagJJl-106" value="+ id: Int" style="text;align=left;verticalAlign=top;spacingLeft=4;spacingRight=4;overflow=hidden;rotatable=0;points=[[0,0.5],[1,0.5]];portConstraint=eastwest;fontFamily=Old Standard TT;fontStyle=0;fontSize=13;" vertex="1" parent="9OyCvRePDQKFfZRagJJl-46">
          <mxGeometry y="26" width="176" height="26" as="geometry" />
        </mxCell>
        <mxCell id="9OyCvRePDQKFfZRagJJl-47" value="+ creationDate: Date" style="text;align=left;verticalAlign=top;spacingLeft=4;spacingRight=4;overflow=hidden;rotatable=0;points=[[0,0.5],[1,0.5]];portConstraint=eastwest;fontFamily=Old Standard TT;fontStyle=0;fontSize=13;" vertex="1" parent="9OyCvRePDQKFfZRagJJl-46">
          <mxGeometry y="52" width="176" height="26" as="geometry" />
        </mxCell>
        <mxCell id="9OyCvRePDQKFfZRagJJl-82" value="+ command: String" style="text;align=left;verticalAlign=top;spacingLeft=4;spacingRight=4;overflow=hidden;rotatable=0;points=[[0,0.5],[1,0.5]];portConstraint=eastwest;fontFamily=Old Standard TT;fontStyle=0;fontSize=13;" vertex="1" parent="9OyCvRePDQKFfZRagJJl-46">
          <mxGeometry y="78" width="176" height="26" as="geometry" />
        </mxCell>
        <mxCell id="9OyCvRePDQKFfZRagJJl-83" value="+ jobType: String" style="text;align=left;verticalAlign=top;spacingLeft=4;spacingRight=4;overflow=hidden;rotatable=0;points=[[0,0.5],[1,0.5]];portConstraint=eastwest;fontFamily=Old Standard TT;fontStyle=0;fontSize=13;" vertex="1" parent="9OyCvRePDQKFfZRagJJl-46">
          <mxGeometry y="104" width="176" height="26" as="geometry" />
        </mxCell>
        <mxCell id="9OyCvRePDQKFfZRagJJl-84" value="+ cronShedule: String" style="text;align=left;verticalAlign=top;spacingLeft=4;spacingRight=4;overflow=hidden;rotatable=0;points=[[0,0.5],[1,0.5]];portConstraint=eastwest;fontFamily=Old Standard TT;fontStyle=0;fontSize=13;" vertex="1" parent="9OyCvRePDQKFfZRagJJl-46">
          <mxGeometry y="130" width="176" height="26" as="geometry" />
        </mxCell>
        <mxCell id="9OyCvRePDQKFfZRagJJl-85" value="+ expression: String" style="text;align=left;verticalAlign=top;spacingLeft=4;spacingRight=4;overflow=hidden;rotatable=0;points=[[0,0.5],[1,0.5]];portConstraint=eastwest;fontFamily=Old Standard TT;fontStyle=0;fontSize=13;" vertex="1" parent="9OyCvRePDQKFfZRagJJl-46">
          <mxGeometry y="156" width="176" height="26" as="geometry" />
        </mxCell>
        <mxCell id="9OyCvRePDQKFfZRagJJl-86" value="+ lastRun: Date" style="text;align=left;verticalAlign=top;spacingLeft=4;spacingRight=4;overflow=hidden;rotatable=0;points=[[0,0.5],[1,0.5]];portConstraint=eastwest;fontFamily=Old Standard TT;fontStyle=0;fontSize=13;" vertex="1" parent="9OyCvRePDQKFfZRagJJl-46">
          <mxGeometry y="182" width="176" height="26" as="geometry" />
        </mxCell>
        <mxCell id="9OyCvRePDQKFfZRagJJl-87" value="+ nextRun: Date" style="text;align=left;verticalAlign=top;spacingLeft=4;spacingRight=4;overflow=hidden;rotatable=0;points=[[0,0.5],[1,0.5]];portConstraint=eastwest;fontFamily=Old Standard TT;fontStyle=0;fontSize=13;" vertex="1" parent="9OyCvRePDQKFfZRagJJl-46">
          <mxGeometry y="208" width="176" height="26" as="geometry" />
        </mxCell>
        <mxCell id="9OyCvRePDQKFfZRagJJl-88" value="+ status: String" style="text;align=left;verticalAlign=top;spacingLeft=4;spacingRight=4;overflow=hidden;rotatable=0;points=[[0,0.5],[1,0.5]];portConstraint=eastwest;fontFamily=Old Standard TT;fontStyle=0;fontSize=13;" vertex="1" parent="9OyCvRePDQKFfZRagJJl-46">
          <mxGeometry y="234" width="176" height="26" as="geometry" />
        </mxCell>
        <mxCell id="9OyCvRePDQKFfZRagJJl-89" value="" style="line;html=1;strokeWidth=1;align=left;verticalAlign=middle;spacingTop=-1;spacingLeft=3;spacingRight=3;rotatable=0;labelPosition=right;points=[];portConstraint=eastwest;" vertex="1" parent="9OyCvRePDQKFfZRagJJl-46">
          <mxGeometry y="260" width="176" height="8" as="geometry" />
        </mxCell>
        <mxCell id="9OyCvRePDQKFfZRagJJl-157" value="+ get_job(): CronTab" style="text;strokeColor=none;fillColor=none;align=left;verticalAlign=top;spacingLeft=4;spacingRight=4;overflow=hidden;rotatable=0;points=[[0,0.5],[1,0.5]];portConstraint=eastwest;labelBackgroundColor=none;fontFamily=Old Standard TT;fontSize=13;" vertex="1" parent="9OyCvRePDQKFfZRagJJl-46">
          <mxGeometry y="268" width="176" height="26" as="geometry" />
        </mxCell>
        <mxCell id="9OyCvRePDQKFfZRagJJl-158" value="+ update_last_run(session)" style="text;strokeColor=none;fillColor=none;align=left;verticalAlign=top;spacingLeft=4;spacingRight=4;overflow=hidden;rotatable=0;points=[[0,0.5],[1,0.5]];portConstraint=eastwest;labelBackgroundColor=none;fontFamily=Old Standard TT;fontSize=13;" vertex="1" parent="9OyCvRePDQKFfZRagJJl-46">
          <mxGeometry y="294" width="176" height="26" as="geometry" />
        </mxCell>
        <mxCell id="9OyCvRePDQKFfZRagJJl-159" value="- get_lastrun(): Date" style="text;strokeColor=none;fillColor=none;align=left;verticalAlign=top;spacingLeft=4;spacingRight=4;overflow=hidden;rotatable=0;points=[[0,0.5],[1,0.5]];portConstraint=eastwest;labelBackgroundColor=none;fontFamily=Old Standard TT;fontSize=13;" vertex="1" parent="9OyCvRePDQKFfZRagJJl-46">
          <mxGeometry y="320" width="176" height="26" as="geometry" />
        </mxCell>
        <mxCell id="9OyCvRePDQKFfZRagJJl-53" value="Service" style="swimlane;fontStyle=1;align=center;verticalAlign=top;childLayout=stackLayout;horizontal=1;startSize=26;horizontalStack=0;resizeParent=1;resizeLast=0;collapsible=1;marginBottom=0;rounded=0;shadow=0;strokeWidth=1;fontFamily=Old Standard TT;fontSize=13;" vertex="1" parent="WIyWlLk6GJQsqaUBKTNV-1">
          <mxGeometry x="348" y="535" width="160" height="185" as="geometry">
            <mxRectangle x="340" y="380" width="170" height="26" as="alternateBounds" />
          </mxGeometry>
        </mxCell>
        <mxCell id="9OyCvRePDQKFfZRagJJl-107" value="+ id: Int" style="text;align=left;verticalAlign=top;spacingLeft=4;spacingRight=4;overflow=hidden;rotatable=0;points=[[0,0.5],[1,0.5]];portConstraint=eastwest;fontFamily=Old Standard TT;fontStyle=0;fontSize=13;" vertex="1" parent="9OyCvRePDQKFfZRagJJl-53">
          <mxGeometry y="26" width="160" height="26" as="geometry" />
        </mxCell>
        <mxCell id="9OyCvRePDQKFfZRagJJl-54" value="+ vrfId: String" style="text;align=left;verticalAlign=top;spacingLeft=4;spacingRight=4;overflow=hidden;rotatable=0;points=[[0,0.5],[1,0.5]];portConstraint=eastwest;fontFamily=Old Standard TT;fontStyle=0;fontSize=13;" vertex="1" parent="9OyCvRePDQKFfZRagJJl-53">
          <mxGeometry y="52" width="160" height="26" as="geometry" />
        </mxCell>
        <mxCell id="9OyCvRePDQKFfZRagJJl-55" value="+ vrfName: String" style="text;align=left;verticalAlign=top;spacingLeft=4;spacingRight=4;overflow=hidden;rotatable=0;points=[[0,0.5],[1,0.5]];portConstraint=eastwest;fontSize=13;fontFamily=Old Standard TT;" vertex="1" parent="9OyCvRePDQKFfZRagJJl-53">
          <mxGeometry y="78" width="160" height="26" as="geometry" />
        </mxCell>
        <mxCell id="9OyCvRePDQKFfZRagJJl-56" value="+ description: String" style="text;align=left;verticalAlign=top;spacingLeft=4;spacingRight=4;overflow=hidden;rotatable=0;points=[[0,0.5],[1,0.5]];portConstraint=eastwest;fontFamily=Old Standard TT;fontSize=13;" vertex="1" parent="9OyCvRePDQKFfZRagJJl-53">
          <mxGeometry y="104" width="160" height="26" as="geometry" />
        </mxCell>
        <mxCell id="9OyCvRePDQKFfZRagJJl-57" value="+ qos: Int" style="text;align=left;verticalAlign=top;spacingLeft=4;spacingRight=4;overflow=hidden;rotatable=0;points=[[0,0.5],[1,0.5]];portConstraint=eastwest;fontFamily=Old Standard TT;fontSize=13;" vertex="1" parent="9OyCvRePDQKFfZRagJJl-53">
          <mxGeometry y="130" width="160" height="26" as="geometry" />
        </mxCell>
        <mxCell id="9OyCvRePDQKFfZRagJJl-59" value="" style="line;html=1;strokeWidth=1;align=left;verticalAlign=middle;spacingTop=-1;spacingLeft=3;spacingRight=3;rotatable=0;labelPosition=right;points=[];portConstraint=eastwest;" vertex="1" parent="9OyCvRePDQKFfZRagJJl-53">
          <mxGeometry y="156" width="160" height="8" as="geometry" />
        </mxCell>
        <mxCell id="9OyCvRePDQKFfZRagJJl-90" value="Client" style="swimlane;fontStyle=1;align=center;verticalAlign=top;childLayout=stackLayout;horizontal=1;startSize=26;horizontalStack=0;resizeParent=1;resizeLast=0;collapsible=1;marginBottom=0;rounded=0;shadow=0;strokeWidth=1;fontFamily=Old Standard TT;fontSize=13;" vertex="1" parent="WIyWlLk6GJQsqaUBKTNV-1">
          <mxGeometry x="651" y="560" width="160" height="135" as="geometry">
            <mxRectangle x="340" y="380" width="170" height="26" as="alternateBounds" />
          </mxGeometry>
        </mxCell>
        <mxCell id="9OyCvRePDQKFfZRagJJl-108" value="+ id: Int" style="text;align=left;verticalAlign=top;spacingLeft=4;spacingRight=4;overflow=hidden;rotatable=0;points=[[0,0.5],[1,0.5]];portConstraint=eastwest;fontFamily=Old Standard TT;fontStyle=0;fontSize=13;" vertex="1" parent="9OyCvRePDQKFfZRagJJl-90">
          <mxGeometry y="26" width="160" height="26" as="geometry" />
        </mxCell>
        <mxCell id="9OyCvRePDQKFfZRagJJl-91" value="+ name: String" style="text;align=left;verticalAlign=top;spacingLeft=4;spacingRight=4;overflow=hidden;rotatable=0;points=[[0,0.5],[1,0.5]];portConstraint=eastwest;fontFamily=Old Standard TT;fontStyle=0;fontSize=13;" vertex="1" parent="9OyCvRePDQKFfZRagJJl-90">
          <mxGeometry y="52" width="160" height="26" as="geometry" />
        </mxCell>
        <mxCell id="9OyCvRePDQKFfZRagJJl-92" value="+ code: String" style="text;align=left;verticalAlign=top;spacingLeft=4;spacingRight=4;overflow=hidden;rotatable=0;points=[[0,0.5],[1,0.5]];portConstraint=eastwest;fontSize=13;fontFamily=Old Standard TT;" vertex="1" parent="9OyCvRePDQKFfZRagJJl-90">
          <mxGeometry y="78" width="160" height="26" as="geometry" />
        </mxCell>
        <mxCell id="9OyCvRePDQKFfZRagJJl-95" value="" style="line;html=1;strokeWidth=1;align=left;verticalAlign=middle;spacingTop=-1;spacingLeft=3;spacingRight=3;rotatable=0;labelPosition=right;points=[];portConstraint=eastwest;" vertex="1" parent="9OyCvRePDQKFfZRagJJl-90">
          <mxGeometry y="104" width="160" height="8" as="geometry" />
        </mxCell>
        <mxCell id="9OyCvRePDQKFfZRagJJl-144" value="client_service" style="swimlane;fontStyle=1;childLayout=stackLayout;horizontal=1;startSize=26;fillColor=none;horizontalStack=0;resizeParent=1;resizeParentMax=0;resizeLast=0;collapsible=1;marginBottom=0;labelBackgroundColor=none;fontFamily=Old Standard TT;fontSize=12;" vertex="1" parent="WIyWlLk6GJQsqaUBKTNV-1">
          <mxGeometry x="511" y="742" width="140" height="78" as="geometry" />
        </mxCell>
        <mxCell id="9OyCvRePDQKFfZRagJJl-145" value="+ serviceId: Int" style="text;strokeColor=none;fillColor=none;align=left;verticalAlign=top;spacingLeft=4;spacingRight=4;overflow=hidden;rotatable=0;points=[[0,0.5],[1,0.5]];portConstraint=eastwest;fontFamily=Old Standard TT;fontSize=13;" vertex="1" parent="9OyCvRePDQKFfZRagJJl-144">
          <mxGeometry y="26" width="140" height="26" as="geometry" />
        </mxCell>
        <mxCell id="9OyCvRePDQKFfZRagJJl-146" value="+ clientId: Int" style="text;strokeColor=none;fillColor=none;align=left;verticalAlign=top;spacingLeft=4;spacingRight=4;overflow=hidden;rotatable=0;points=[[0,0.5],[1,0.5]];portConstraint=eastwest;fontFamily=Old Standard TT;fontSize=13;" vertex="1" parent="9OyCvRePDQKFfZRagJJl-144">
          <mxGeometry y="52" width="140" height="26" as="geometry" />
        </mxCell>
        <mxCell id="9OyCvRePDQKFfZRagJJl-79" value="Role" style="swimlane;fontStyle=1;align=center;verticalAlign=top;childLayout=stackLayout;horizontal=1;startSize=26;horizontalStack=0;resizeParent=1;resizeLast=0;collapsible=1;marginBottom=0;rounded=0;shadow=0;strokeWidth=1;fontFamily=Old Standard TT;fontSize=13;" vertex="1" parent="WIyWlLk6GJQsqaUBKTNV-1">
          <mxGeometry x="550" y="855" width="160" height="135" as="geometry">
            <mxRectangle x="340" y="380" width="170" height="26" as="alternateBounds" />
          </mxGeometry>
        </mxCell>
        <mxCell id="9OyCvRePDQKFfZRagJJl-110" value="+ id: Int" style="text;align=left;verticalAlign=top;spacingLeft=4;spacingRight=4;overflow=hidden;rotatable=0;points=[[0,0.5],[1,0.5]];portConstraint=eastwest;fontFamily=Old Standard TT;fontStyle=0;fontSize=13;" vertex="1" parent="9OyCvRePDQKFfZRagJJl-79">
          <mxGeometry y="26" width="160" height="26" as="geometry" />
        </mxCell>
        <mxCell id="9OyCvRePDQKFfZRagJJl-80" value="+ name: String" style="text;align=left;verticalAlign=top;spacingLeft=4;spacingRight=4;overflow=hidden;rotatable=0;points=[[0,0.5],[1,0.5]];portConstraint=eastwest;fontFamily=Old Standard TT;fontStyle=0;fontSize=13;" vertex="1" parent="9OyCvRePDQKFfZRagJJl-79">
          <mxGeometry y="52" width="160" height="26" as="geometry" />
        </mxCell>
        <mxCell id="9OyCvRePDQKFfZRagJJl-74" value="+ description: String" style="text;align=left;verticalAlign=top;spacingLeft=4;spacingRight=4;overflow=hidden;rotatable=0;points=[[0,0.5],[1,0.5]];portConstraint=eastwest;fontSize=13;fontFamily=Old Standard TT;" vertex="1" parent="9OyCvRePDQKFfZRagJJl-79">
          <mxGeometry y="78" width="160" height="26" as="geometry" />
        </mxCell>
        <mxCell id="9OyCvRePDQKFfZRagJJl-78" value="" style="line;html=1;strokeWidth=1;align=left;verticalAlign=middle;spacingTop=-1;spacingLeft=3;spacingRight=3;rotatable=0;labelPosition=right;points=[];portConstraint=eastwest;" vertex="1" parent="9OyCvRePDQKFfZRagJJl-79">
          <mxGeometry y="104" width="160" height="8" as="geometry" />
        </mxCell>
        <mxCell id="9OyCvRePDQKFfZRagJJl-72" value="User" style="swimlane;fontStyle=1;align=center;verticalAlign=top;childLayout=stackLayout;horizontal=1;startSize=26;horizontalStack=0;resizeParent=1;resizeLast=0;collapsible=1;marginBottom=0;rounded=0;shadow=0;strokeWidth=1;fontFamily=Old Standard TT;fontSize=13;" vertex="1" parent="WIyWlLk6GJQsqaUBKTNV-1">
          <mxGeometry x="250" y="830" width="160" height="185" as="geometry">
            <mxRectangle x="340" y="380" width="170" height="26" as="alternateBounds" />
          </mxGeometry>
        </mxCell>
        <mxCell id="9OyCvRePDQKFfZRagJJl-109" value="+ id: Int" style="text;align=left;verticalAlign=top;spacingLeft=4;spacingRight=4;overflow=hidden;rotatable=0;points=[[0,0.5],[1,0.5]];portConstraint=eastwest;fontFamily=Old Standard TT;fontStyle=0;fontSize=13;" vertex="1" parent="9OyCvRePDQKFfZRagJJl-72">
          <mxGeometry y="26" width="160" height="26" as="geometry" />
        </mxCell>
        <mxCell id="9OyCvRePDQKFfZRagJJl-73" value="+ name: String" style="text;align=left;verticalAlign=top;spacingLeft=4;spacingRight=4;overflow=hidden;rotatable=0;points=[[0,0.5],[1,0.5]];portConstraint=eastwest;fontFamily=Old Standard TT;fontStyle=0;fontSize=13;" vertex="1" parent="9OyCvRePDQKFfZRagJJl-72">
          <mxGeometry y="52" width="160" height="26" as="geometry" />
        </mxCell>
        <mxCell id="9OyCvRePDQKFfZRagJJl-67" value="+ email: String" style="text;align=left;verticalAlign=top;spacingLeft=4;spacingRight=4;overflow=hidden;rotatable=0;points=[[0,0.5],[1,0.5]];portConstraint=eastwest;fontSize=13;fontFamily=Old Standard TT;" vertex="1" parent="9OyCvRePDQKFfZRagJJl-72">
          <mxGeometry y="78" width="160" height="26" as="geometry" />
        </mxCell>
        <mxCell id="9OyCvRePDQKFfZRagJJl-68" value="+ password: String" style="text;align=left;verticalAlign=top;spacingLeft=4;spacingRight=4;overflow=hidden;rotatable=0;points=[[0,0.5],[1,0.5]];portConstraint=eastwest;fontFamily=Old Standard TT;fontSize=13;" vertex="1" parent="9OyCvRePDQKFfZRagJJl-72">
          <mxGeometry y="104" width="160" height="26" as="geometry" />
        </mxCell>
        <mxCell id="9OyCvRePDQKFfZRagJJl-69" value="+ creationDate" style="text;align=left;verticalAlign=top;spacingLeft=4;spacingRight=4;overflow=hidden;rotatable=0;points=[[0,0.5],[1,0.5]];portConstraint=eastwest;fontFamily=Old Standard TT;fontSize=13;" vertex="1" parent="9OyCvRePDQKFfZRagJJl-72">
          <mxGeometry y="130" width="160" height="26" as="geometry" />
        </mxCell>
        <mxCell id="9OyCvRePDQKFfZRagJJl-71" value="" style="line;html=1;strokeWidth=1;align=left;verticalAlign=middle;spacingTop=-1;spacingLeft=3;spacingRight=3;rotatable=0;labelPosition=right;points=[];portConstraint=eastwest;" vertex="1" parent="9OyCvRePDQKFfZRagJJl-72">
          <mxGeometry y="156" width="160" height="8" as="geometry" />
        </mxCell>
      </root>
    </mxGraphModel>
  </diagram>
</mxfile>
